<?xml version="1.0" encoding="iso-8859-1"?>
<!-- Generator: Adobe Illustrator 21.0.0, SVG Export Plug-In . SVG Version: 6.00 Build 0)  -->
<svg version="1.1" id="Capa_1" xmlns="http://www.w3.org/2000/svg" xmlns:xlink="http://www.w3.org/1999/xlink" x="0px" y="0px"
	 viewBox="0 0 512 512" style="enable-background:new 0 0 512 512;" xml:space="preserve">
<path style="fill:#5A5A5A;" d="M437,46H75c-24.901,0-45,20.099-45,45v270c0,8.399,6.599,15,15,15h105v15c0,8.399,6.599,15,15,15h182
	c8.401,0,15-6.601,15-15v-15h105c8.401,0,15-6.601,15-15V91C482,66.099,461.901,46,437,46z"/>
<path style="fill:#444444;" d="M482,91v270c0,8.399-6.599,15-15,15H362v15c0,8.399-6.599,15-15,15h-91V46h181
	C461.901,46,482,66.099,482,91z"/>
<path style="fill:#ECECF1;" d="M452,91v315H60V91c0-8.401,6.599-15,15-15h362C445.401,76,452,82.599,452,91z"/>
<path style="fill:#E2E2E7;" d="M452,91v315H256V76h181C445.401,76,452,82.599,452,91z"/>
<path style="fill:#6E6E6E;" d="M512,361v30c0,41.4-33.6,75-75,75H75c-41.4,0-75-33.6-75-75v-30c0-8.401,6.599-15,15-15h150
	c8.401,0,15,6.599,15,15v15h152v-15c0-8.401,6.599-15,15-15h150C505.401,346,512,352.599,512,361z"/>
<path style="fill:#5A5A5A;" d="M512,361v30c0,41.4-33.6,75-75,75H256v-90h76v-15c0-8.401,6.599-15,15-15h150
	C505.401,346,512,352.599,512,361z"/>
<path style="fill:#FF7816;" d="M366.501,182.8L297.5,251.499c-5.7,6-16.298,6-21.999,0L256,232l-30-29.702l-110.501,109.2
	l-20.999-21l121-120c5.7-5.999,15.298-5.999,20.999,0L256,190l31,29.7l58.2-58.2c5.7-5.7,15.3-5.7,21.301,0
	C372.201,167.5,372.201,177.1,366.501,182.8z"/>
<path style="fill:#FF4B00;" d="M366.501,182.8L297.5,251.499c-5.7,6-16.298,6-21.999,0L256,232v-42l31,29.7l58.2-58.2
	c5.7-5.7,15.3-5.7,21.301,0C372.201,167.5,372.201,177.1,366.501,182.8z"/>
<path style="fill:#6E6E6E;" d="M407,286H120V121c0-8.291-6.709-15-15-15s-15,6.709-15,15v180c0,8.399,6.599,15,15,15h302
	c8.401,0,15-6.601,15-15C422,292.599,415.401,286,407,286z"/>
<path style="fill:#5A5A5A;" d="M422,301c0,8.399-6.599,15-15,15H256v-30h151C415.401,286,422,292.599,422,301z"/>
<path style="fill:#FDBF00;" d="M377,196c-24.814,0-45-20.186-45-45s20.186-45,45-45s45,20.186,45,45S401.814,196,377,196z"/>
<g>
</g>
<g>
</g>
<g>
</g>
<g>
</g>
<g>
</g>
<g>
</g>
<g>
</g>
<g>
</g>
<g>
</g>
<g>
</g>
<g>
</g>
<g>
</g>
<g>
</g>
<g>
</g>
<g>
</g>
</svg>
