<?xml version="1.0" encoding="iso-8859-1"?>
<!-- Generator: Adobe Illustrator 21.0.0, SVG Export Plug-In . SVG Version: 6.00 Build 0)  -->
<svg version="1.1" id="Capa_1" xmlns="http://www.w3.org/2000/svg" xmlns:xlink="http://www.w3.org/1999/xlink" x="0px" y="0px"
	 viewBox="0 0 512 512" style="enable-background:new 0 0 512 512;" xml:space="preserve">
<path style="fill:#76E2F8;" d="M512,46v105l-30,30H30L0,151V46c0-8.401,6.599-15,15-15h482C505.401,31,512,37.599,512,46z"/>
<path style="fill:#25D9F8;" d="M512,46v105l-30,30H256V31h241C505.401,31,512,37.599,512,46z"/>
<path style="fill:#ECECF1;" d="M512,151v315c0,8.401-6.599,15-15,15H15c-8.401,0-15-6.599-15-15V151H512z"/>
<path style="fill:#E2E2E7;" d="M512,151v315c0,8.401-6.599,15-15,15H256V151H512z"/>
<g>
	<path style="fill:#FF7816;" d="M155.395,416.605l-60-60c-5.859-5.859-5.859-15.352,0-21.211l60-60
		c5.859-5.859,15.352-5.859,21.211,0s5.859,15.352,0,21.211L127.211,346l49.395,49.395
		C190.826,409.615,169.23,430.441,155.395,416.605z"/>
	<path style="fill:#FF7816;" d="M299.5,292.599l-60,120c-3.9,7.5-12.599,10.501-20.099,6.901c-7.5-3.9-10.501-12.9-6.901-20.099
		l60-120c3.9-7.5,12.9-10.501,20.099-6.901C300.099,276.4,303.1,285.399,299.5,292.599z"/>
</g>
<path style="fill:#FF4B00;" d="M335.395,416.605c-5.859-5.859-5.859-15.352,0-21.211L384.789,346l-49.395-49.395
	c-5.859-5.859-5.859-15.352,0-21.211s15.352-5.859,21.211,0l60,60c5.859,5.859,5.859,15.352,0,21.211l-60,60
	C350.746,422.465,341.254,422.465,335.395,416.605z"/>
<path style="fill:#5A5A5A;" d="M226,121H76c-8.291,0-15-6.709-15-15s6.709-15,15-15h150c8.291,0,15,6.709,15,15S234.291,121,226,121
	z"/>
<g>
	<path style="fill:#FF4B00;" d="M299.5,292.599L256,379.6v-67.2l16.5-32.999c3.9-7.5,12.9-10.501,20.099-6.901
		C300.099,276.4,303.1,285.399,299.5,292.599z"/>
	<circle style="fill:#FF4B00;" cx="316" cy="106" r="15"/>
	<circle style="fill:#FF4B00;" cx="376" cy="106" r="15"/>
	<circle style="fill:#FF4B00;" cx="436" cy="106" r="15"/>
</g>
<path style="fill:#FF7816;" d="M451,226c0,8.401-6.599,15-15,15H76c-8.401,0-15-6.599-15-15s6.599-15,15-15h360
	C444.401,211,451,217.599,451,226z"/>
<path style="fill:#FF4B00;" d="M451,226c0,8.401-6.599,15-15,15H256v-30h180C444.401,211,451,217.599,451,226z"/>
<g>
</g>
<g>
</g>
<g>
</g>
<g>
</g>
<g>
</g>
<g>
</g>
<g>
</g>
<g>
</g>
<g>
</g>
<g>
</g>
<g>
</g>
<g>
</g>
<g>
</g>
<g>
</g>
<g>
</g>
</svg>
