<svg id="Capa_1" enable-background="new 0 0 511.998 511.998" height="512" viewBox="0 0 511.998 511.998" width="512" xmlns="http://www.w3.org/2000/svg"><g><path d="m406.991 0h-301.985c-8.284 0-15 6.716-15 15v199.99c0 8.284 6.716 15 15 15h114.493l25.555 27.268c2.835 3.026 6.797 4.743 10.945 4.743 4.147 0 8.109-1.717 10.945-4.743l25.556-27.268h114.492c8.284 0 15-6.716 15-15v-199.99c-.001-8.284-6.717-15-15.001-15z" fill="#fff5f5"/><path d="m406.991 0h-150.991v262.002c4.146 0 8.108-1.717 10.943-4.743l25.556-27.268h114.492c8.284 0 15-6.716 15-15v-199.991c0-8.284-6.716-15-15-15z" fill="#e6e9f2"/><path d="m476.997 302.008h-441.996c-8.284 0-15 6.716-15 15v149.985c0 3.978 1.58 7.793 4.393 10.607l30.002 30.004c2.813 2.813 6.628 4.395 10.607 4.395h381.992c3.978 0 7.794-1.581 10.606-4.395l30.003-30.004c2.814-2.814 4.394-6.628 4.394-10.607v-149.985c-.001-8.284-6.717-15-15.001-15z" fill="#333e73"/><path d="m476.997 302.008h-220.998v209.99h190.995c3.978 0 7.794-1.581 10.606-4.395l30.003-30.004c2.814-2.814 4.394-6.628 4.394-10.607v-149.984c0-8.284-6.716-15-15-15z" fill="#1f2859"/><path d="m416.99 451.998h-10.979c-8.284 0-15-6.717-15-15 0-8.285 6.716-15 15-15h10.979c8.284 0 15 6.715 15 15 0 8.283-6.716 15-15 15z" fill="#333e73"/><path d="m416.991 391.99h-10.979c-8.284 0-15-6.716-15-15 0-8.283 6.716-15 15-15h10.979c8.284 0 15 6.717 15 15 0 8.284-6.716 15-15 15z" fill="#333e73"/><path d="m180.99 376.989c0 8.284-6.716 15.001-15.001 15.001-8.284 0-15.001-6.717-15.001-15.001s6.716-15.001 15.001-15.001c8.284 0 15.001 6.717 15.001 15.001z" fill="#4d578c"/><path d="m180.99 436.998c0 8.284-6.716 15.002-15.001 15.002-8.284 0-15.001-6.718-15.001-15.002s6.716-15 15.001-15c8.284 0 15.001 6.716 15.001 15z" fill="#4d578c"/><circle cx="346.009" cy="376.989" fill="#333e73" r="15.001"/><circle cx="285.999" cy="376.989" fill="#333e73" r="15.001"/><circle cx="225.999" cy="376.989" fill="#4d578c" r="15.001"/><path d="m361.01 436.998c0 8.284-6.716 15.002-15.001 15.002s-15.001-6.718-15.001-15.002 6.716-15 15.001-15 15.001 6.716 15.001 15z" fill="#333e73"/><path d="m286.001 451.998h-60.006c-8.284 0-15-6.717-15-15 0-8.285 6.716-15 15-15h60.006c8.284 0 15 6.715 15 15 0 8.283-6.716 15-15 15z" fill="#4d578c"/><path d="m286.001 421.998h-30.002v30h30.002c8.284 0 15-6.717 15-15 0-8.285-6.716-15-15-15z" fill="#333e73"/><path d="m105.988 451.998h-10.985c-8.284 0-15-6.717-15-15 0-8.285 6.716-15 15-15h10.985c8.284 0 15 6.715 15 15 0 8.283-6.716 15-15 15z" fill="#4d578c"/><path d="m105.989 391.99h-10.985c-8.284 0-15-6.716-15-15 0-8.283 6.716-15 15-15h10.985c8.284 0 15 6.717 15 15 0 8.284-6.716 15-15 15z" fill="#4d578c"/><path d="m189.518 154.509c-3.839 0-7.677-1.464-10.607-4.393l-24.513-24.514c-5.857-5.857-5.857-15.355 0-21.213l24.514-24.514c5.857-5.857 15.355-5.857 21.213 0s5.858 15.355 0 21.213l-13.907 13.907 13.907 13.907c5.857 5.857 5.857 15.355-.001 21.213-2.928 2.929-6.767 4.394-10.606 4.394z" fill="#7ed8f6"/><path d="m322.478 154.51c-3.839 0-7.677-1.464-10.606-4.393-5.857-5.858-5.858-15.355-.001-21.214l13.907-13.908-13.906-13.906c-5.858-5.857-5.858-15.355 0-21.213 5.857-5.857 15.355-5.857 21.213 0l24.513 24.513c5.858 5.857 5.858 15.354.001 21.213l-24.513 24.515c-2.93 2.928-6.769 4.393-10.608 4.393z" fill="#6aa9ff"/><path d="m235.987 169.993c-2.255 0-4.544-.51-6.698-1.587-7.409-3.705-10.411-12.716-6.706-20.125l40.003-79.99c3.706-7.41 12.718-10.412 20.125-6.707 7.409 3.705 10.412 12.716 6.707 20.125l-40.003 79.99c-2.628 5.256-7.927 8.294-13.428 8.294z" fill="#7ed8f6"/><path d="m282.711 61.584c-7.407-3.705-16.419-.703-20.125 6.707l-6.586 13.168v67.072l33.417-66.822c3.706-7.409.703-16.42-6.706-20.125z" fill="#6aa9ff"/></g></svg>