<?xml version="1.0" encoding="iso-8859-1"?>
<!-- Generator: Adobe Illustrator 21.0.0, SVG Export Plug-In . SVG Version: 6.00 Build 0)  -->
<svg version="1.1" id="Capa_1" xmlns="http://www.w3.org/2000/svg" xmlns:xlink="http://www.w3.org/1999/xlink" x="0px" y="0px"
	 viewBox="0 0 512 512" style="enable-background:new 0 0 512 512;" xml:space="preserve">
<path style="fill:#FFD400;" d="M331.001,437c0,41.4-33.6,75-75,75s-75-33.6-75-75c0-8.401,6.599-15,15-15h120
	C324.402,422,331.001,428.599,331.001,437z"/>
<path style="fill:#FDBF00;" d="M331.001,437c0,41.4-33.6,75-75,75v-90h60C324.402,422,331.001,428.599,331.001,437z"/>
<path style="fill:#6E6E6E;" d="M361.001,392v15c0,24.899-20.099,45-45,45h-120c-24.901,0-45-20.101-45-45v-15l30-31h150L361.001,392
	z"/>
<path style="fill:#5A5A5A;" d="M361.001,392v15c0,24.899-20.099,45-45,45h-60v-91h75L361.001,392z"/>
<path style="fill:#FFE470;" d="M421.001,165c0,36-11.4,70.199-32.999,98.699c-17.701,23.699-27.001,50.4-27.001,76.8V392h-210
	v-51.501c0-26.1-9.6-52.8-27.9-77.699c-27.301-36.901-37.5-82.5-29.399-128.401C105.4,69.6,156.401,17.1,220.601,3.6
	c11.7-2.401,23.699-3.6,35.4-3.6c38.1,0,74.399,12.9,104.099,36.899C398.801,68.399,421.001,115.199,421.001,165z"/>
<path style="fill:#FFD400;" d="M421.001,165c0,36-11.4,70.199-32.999,98.699c-17.701,23.699-27.001,50.4-27.001,76.8V392h-105V0
	c38.1,0,74.399,12.9,104.099,36.899C398.801,68.399,421.001,115.199,421.001,165z"/>
<path style="fill:#FF9F00;" d="M271.001,315c0,8.399-6.599,15-15,15c-8.401,0-15-6.601-15-15c0-8.401,6.599-15,15-15
	C264.402,300,271.001,306.599,271.001,315z"/>
<path style="fill:#FF7816;" d="M256.001,330v-30c8.401,0,15,6.599,15,15C271.001,323.399,264.402,330,256.001,330z"/>
<path style="fill:#FF9F00;" d="M322.6,151.5l-46.5-23.101l23.401-46.8c3.3-6.599,1.199-14.399-4.801-18.9
	c-5.999-4.199-14.099-3.6-19.199,1.8l-90,90c-3.6,3.301-5.101,8.101-4.2,12.9c0.601,4.801,3.6,9.001,8.101,11.102l46.5,23.099
	l-23.401,46.8c-3.3,6.601-1.199,14.401,4.801,18.9c5.999,4.2,14.099,3.6,19.199-1.8l19.5-19.5l70.499-70.501
	c3.6-3.3,5.101-8.101,4.2-12.9C330.1,157.8,327.101,153.6,322.6,151.5z"/>
<path style="fill:#FF7816;" d="M326.5,175.499L256.001,246V84l19.501-19.501c5.099-5.4,13.2-5.999,19.199-1.8
	c6,4.501,8.101,12.301,4.801,18.9l-23.401,46.8l46.5,23.101c4.501,2.1,7.5,6.301,8.101,11.1
	C331.601,167.399,330.1,172.2,326.5,175.499z"/>
<g>
</g>
<g>
</g>
<g>
</g>
<g>
</g>
<g>
</g>
<g>
</g>
<g>
</g>
<g>
</g>
<g>
</g>
<g>
</g>
<g>
</g>
<g>
</g>
<g>
</g>
<g>
</g>
<g>
</g>
</svg>
