<svg id="Capa_1" enable-background="new 0 0 512 512" height="512" viewBox="0 0 512 512" width="512" xmlns="http://www.w3.org/2000/svg"><g><path d="m497 23.492h-482c-8.284 0-15 6.716-15 15v300.01c0 8.284 6.716 15 15 15h482c8.284 0 15-6.716 15-15v-300.01c0-8.284-6.716-15-15-15z" fill="#fff5f5"/><path d="m497 23.492h-241v330.01h241c8.284 0 15-6.716 15-15v-300.01c0-8.284-6.716-15-15-15z" fill="#e6e9f2"/><path d="m301 383.508h-90c-8.284 0-15 6.716-15 15v64.999c0 8.284 6.716 15 15 15h90c8.284 0 15-6.716 15-15v-64.999c0-8.284-6.716-15-15-15z" fill="#333e73"/><path d="m301 383.508h-45v94.999h45c8.284 0 15-6.716 15-15v-64.999c0-8.284-6.716-15-15-15z" fill="#1f2859"/><path d="m0 338.502v60.006c0 8.284 6.716 15 15 15h482c8.284 0 15-6.716 15-15v-60.006z" fill="#4d578c"/><path d="m256 338.502v75.006h241c8.284 0 15-6.716 15-15v-60.006z" fill="#333e73"/><path d="m331.003 488.508h-150.006c-8.284 0-15-6.716-15-15s6.716-15 15-15h150.006c8.284 0 15 6.716 15 15s-6.716 15-15 15z" fill="#4d578c"/><path d="m331.003 458.508h-75.003v30h75.003c8.284 0 15-6.716 15-15s-6.716-15-15-15z" fill="#333e73"/><path d="m474.328 131.914-82.996-46.502c-4.555-2.553-10.109-2.553-14.664 0l-82.997 46.502c-4.735 2.653-7.668 7.658-7.668 13.086 0 5.429 2.933 10.433 7.668 13.086l82.997 46.5c2.277 1.276 4.805 1.914 7.332 1.914s5.055-.638 7.332-1.914l82.996-46.5c4.735-2.653 7.668-7.657 7.668-13.086 0-5.428-2.932-10.433-7.668-13.086z" fill="#eea542"/><path d="m286.003 145v86.998c0 5.429 2.933 10.433 7.668 13.086l82.997 46.5c2.279 1.277 4.806 1.914 7.332 1.914 2.622 0 5.243-.688 7.584-2.058 4.594-2.692 7.416-7.617 7.416-12.942l-15-78.169z" fill="#e62e6b"/><path d="m127.999 83.498h-59.998c-8.284 0-15 6.716-15 15v55c0 8.284 6.716 15 15 15h59.998c8.284 0 15-6.716 15-15v-55c0-8.284-6.716-15-15-15z" fill="#ffd250"/><path d="m187.999 83.498h-60v85h60c8.284 0 15-6.716 15-15v-55c0-8.284-6.716-15-15-15z" fill="#eea542"/><path d="m53.001 153.498v70c0 8.284 6.716 15 15 15h59.998c8.284 0 15-6.716 15-15v-70z" fill="#f66"/><path d="m127.999 153.498v85h60c8.284 0 15-6.716 15-15v-70z" fill="#e62e6b"/><path d="m53.001 223.498v55c0 8.284 6.716 15 15 15h59.998c8.284 0 15-6.716 15-15v-55z" fill="#7ed8f6"/><path d="m127.999 223.498v70h60c8.284 0 15-6.716 15-15v-55z" fill="#6aa9ff"/><path d="m384 200.329v93.169c2.525 0 5.053-.638 7.332-1.914l82.996-46.5c4.735-2.653 7.668-7.658 7.668-13.086v-86.998z" fill="#b32453"/></g></svg>