<?xml version="1.0" encoding="iso-8859-1"?>
<!-- Generator: Adobe Illustrator 21.0.0, SVG Export Plug-In . SVG Version: 6.00 Build 0)  -->
<svg version="1.1" id="Capa_1" xmlns="http://www.w3.org/2000/svg" xmlns:xlink="http://www.w3.org/1999/xlink" x="0px" y="0px"
	 viewBox="0 0 512 512" style="enable-background:new 0 0 512 512;" xml:space="preserve">
<path style="fill:#5A5A5A;" d="M512,61v255l-30,30H32.701L0,316V61c0-24.901,20.099-45,45-45h421C490.901,16,512,36.099,512,61z"/>
<path style="fill:#444444;" d="M512,61v255l-30,30H256V16h210C490.901,16,512,36.099,512,61z"/>
<path style="fill:#ECECF1;" d="M482,61v285H30V61c0-8.401,6.599-15,15-15h421C474.401,46,482,52.599,482,61z"/>
<path style="fill:#E2E2E7;" d="M482,61v285H256V46h210C474.401,46,482,52.599,482,61z"/>
<path style="fill:#5A5A5A;" d="M360.099,476.199H151.901l30-90C183.701,380.2,189.401,376,196,376h120
	c6.599,0,12.299,4.2,14.099,10.199L360.099,476.199z"/>
<path style="fill:#444444;" d="M330.099,386.199l30,90H256V376h60C322.599,376,328.299,380.2,330.099,386.199z"/>
<path style="fill:#6E6E6E;" d="M512,316v45c0,24.899-21.099,45-46,45H45c-24.901,0-45-20.101-45-45v-45H512z"/>
<path style="fill:#5A5A5A;" d="M512,316v45c0,24.899-21.099,45-46,45H256v-90H512z"/>
<path style="fill:#6E6E6E;" d="M421,481c0,8.399-6.599,15-15,15H106c-8.401,0-15-6.601-15-15c0-8.401,6.599-15,15-15h300
	C414.401,466,421,472.599,421,481z"/>
<path style="fill:#5A5A5A;" d="M421,481c0,8.399-6.599,15-15,15H256v-30h150C414.401,466,421,472.599,421,481z"/>
<circle style="fill:#FF4B00;" cx="286" cy="91" r="15"/>
<circle style="fill:#FF7816;" cx="226" cy="91" r="15"/>
<circle style="fill:#FF4B00;" cx="346" cy="91" r="15"/>
<path style="fill:#76E2F8;" d="M416.499,281.499c-5.7,6-15.298,6-20.999,0l-19.5-19.2l-19.501,19.2
	c-2.999,3.3-7.5,4.801-11.999,4.501c-4.501-0.601-8.401-3.001-11.1-6.601l-47.4-71.4l-30,45.3l-17.401,26.1
	c-2.999,4.2-7.8,6.601-12.599,6.601c-2.999,0-5.7-0.901-8.401-2.401c-6.899-4.799-8.699-14.099-4.199-21l42.599-63.9l17.401-26.1
	c5.7-8.399,19.499-8.399,25.199,0l49.801,75l17.1-17.1c5.7-5.999,15.298-5.999,20.999,0l30,30
	C422.5,266.199,422.5,275.799,416.499,281.499z"/>
<path style="fill:#FDBF00;" d="M406,196c-24.814,0-45-20.186-45-45s20.186-45,45-45s45,20.186,45,45S430.814,196,406,196z"/>
<path style="fill:#25D9F8;" d="M416.499,281.499c-5.7,6-15.298,6-20.999,0l-19.5-19.2l-19.501,19.2
	c-2.999,3.3-7.5,4.801-11.999,4.501c-4.501-0.601-8.401-3.001-11.1-6.601l-47.4-71.4l-30,45.3v-54.6l17.401-26.1
	c5.7-8.399,19.499-8.399,25.199,0l49.801,75l17.1-17.1c5.7-5.999,15.298-5.999,20.999,0l30,30
	C422.5,266.199,422.5,275.799,416.499,281.499z"/>
<path style="fill:#FF7816;" d="M166,76H75c-8.401,0-15,6.599-15,15v180c0,8.399,6.599,15,15,15h91c8.401,0,15-6.601,15-15V91
	C181,82.599,174.401,76,166,76z"/>
<path style="fill:#FF4B00;" d="M181,91v180c0,8.399-6.599,15-15,15h-45V76h45C174.401,76,181,82.599,181,91z"/>
<g>
	<rect x="90" y="106" style="fill:#FF9F00;" width="61" height="30"/>
	<rect x="90" y="166" style="fill:#FF9F00;" width="61" height="30"/>
	<rect x="90" y="226" style="fill:#FF9F00;" width="61" height="30"/>
</g>
<g>
	<rect x="121" y="106" style="fill:#FF7816;" width="30" height="30"/>
	<rect x="121" y="166" style="fill:#FF7816;" width="30" height="30"/>
	<rect x="121" y="226" style="fill:#FF7816;" width="30" height="30"/>
</g>
<g>
</g>
<g>
</g>
<g>
</g>
<g>
</g>
<g>
</g>
<g>
</g>
<g>
</g>
<g>
</g>
<g>
</g>
<g>
</g>
<g>
</g>
<g>
</g>
<g>
</g>
<g>
</g>
<g>
</g>
</svg>
