<?xml version="1.0" encoding="iso-8859-1"?>
<!-- Generator: Adobe Illustrator 21.0.0, SVG Export Plug-In . SVG Version: 6.00 Build 0)  -->
<svg version="1.1" id="Capa_1" xmlns="http://www.w3.org/2000/svg" xmlns:xlink="http://www.w3.org/1999/xlink" x="0px" y="0px"
	 viewBox="0 0 512 512" style="enable-background:new 0 0 512 512;" xml:space="preserve">
<path style="fill:#FF7816;" d="M106,151H46c-8.291,0-15-6.709-15-15v-30c0-24.814,20.186-45,45-45s45,20.186,45,45v30
	C121,144.291,114.291,151,106,151z"/>
<path style="fill:#5A5A5A;" d="M512,136v75l-30,30H31L0,211v-75c0-8.401,6.599-15,15-15h110.2l26.7-79.801
	C153.701,35.2,159.401,31,166,31h180c6.599,0,12.299,4.2,14.099,10.199L386.8,121H497C505.401,121,512,127.599,512,136z"/>
<path style="fill:#444444;" d="M512,136v75l-30,30H256V31h90c6.599,0,12.299,4.2,14.099,10.199L386.8,121H497
	C505.401,121,512,127.599,512,136z"/>
<path style="fill:#FDBF00;" d="M512,211v255c0,8.399-6.599,15-15,15H15c-8.401,0-15-6.601-15-15V211H512z"/>
<path style="fill:#FF9F00;" d="M512,211v255c0,8.399-6.599,15-15,15H256V211H512z"/>
<path style="fill:#6E6E6E;" d="M256,151c-74.399,0-135,60.599-135,135c0,74.399,60.601,135,135,135s135-60.601,135-135
	C391,211.599,330.399,151,256,151z"/>
<path style="fill:#5A5A5A;" d="M391,286c0,74.399-60.601,135-135,135V151C330.399,151,391,211.599,391,286z"/>
<path style="fill:#ECECF1;" d="M256,181c-57.9,0-105,47.1-105,105s47.1,105,105,105s105-47.1,105-105S313.9,181,256,181z"/>
<path style="fill:#E2E2E7;" d="M361,286c0,57.9-47.1,105-105,105V181C313.9,181,361,228.1,361,286z"/>
<path style="fill:#FDBF00;" d="M331,106c0,8.399-6.599,15-15,15H196c-8.401,0-15-6.601-15-15c0-8.401,6.599-15,15-15h120
	C324.401,91,331,97.599,331,106z"/>
<g>
	<circle style="fill:#5A5A5A;" cx="76" cy="406" r="15"/>
	<circle style="fill:#5A5A5A;" cx="76" cy="346" r="15"/>
</g>
<path style="fill:#FF9F00;" d="M316,121h-60V91h60c8.401,0,15,6.599,15,15C331,114.399,324.401,121,316,121z"/>
<path style="fill:#76E2F8;" d="M256,211c-41.4,0-75,33.6-75,75s33.6,75,75,75s75-33.6,75-75S297.4,211,256,211z"/>
<path style="fill:#25D9F8;" d="M331,286c0,41.4-33.6,75-75,75V211C297.4,211,331,244.6,331,286z"/>
<g>
</g>
<g>
</g>
<g>
</g>
<g>
</g>
<g>
</g>
<g>
</g>
<g>
</g>
<g>
</g>
<g>
</g>
<g>
</g>
<g>
</g>
<g>
</g>
<g>
</g>
<g>
</g>
<g>
</g>
</svg>
