<svg width="20" height="18" viewBox="0 0 20 18" fill="none" xmlns="http://www.w3.org/2000/svg">
<path d="M17.8571 0.692308H16.4286V0H15V0.692308H10.7143V0H9.28571V0.692308H5V0H3.57143V0.692308H2.14286C1.57445 0.692308 1.02951 0.911124 0.627551 1.30055C0.225763 1.69013 0 2.21831 0 2.76923V15.9231C0 16.474 0.225763 17.0022 0.627551 17.3918C1.0295 17.7812 1.57445 18 2.14286 18H17.8571C18.4256 18 18.9705 17.7812 19.3724 17.3918C19.7742 17.0022 20 16.474 20 15.9231V2.76923C20 2.21831 19.7742 1.69014 19.3724 1.30055C18.9705 0.911124 18.4256 0.692308 17.8571 0.692308ZM2.14286 2.07692H3.57143V2.76923H5V2.07692H9.28571V2.76923H10.7143V2.07692H15V2.76923H16.4286V2.07692H17.8571C18.0466 2.07692 18.2283 2.14986 18.3622 2.27967C18.4962 2.40948 18.5714 2.58565 18.5714 2.76923V4.84615H1.42857V2.76923C1.42857 2.58565 1.50383 2.40948 1.63776 2.27967C1.77168 2.14986 1.95344 2.07692 2.14286 2.07692ZM17.8571 16.6154H2.14286C1.95344 16.6154 1.77168 16.5424 1.63776 16.4126C1.50383 16.2828 1.42857 16.1067 1.42857 15.9231V6.23077H18.5714V15.9231C18.5714 16.1067 18.4962 16.2828 18.3622 16.4126C18.2283 16.5424 18.0466 16.6154 17.8571 16.6154Z" fill="white"/>
</svg>
